<svg id="visual" viewBox="0 0 900 600" width="900" height="600" xmlns="http://www.w3.org/2000/svg" xmlns:xlink="http://www.w3.org/1999/xlink" version="1.1"><path d="M0 393L25 390.5C50 388 100 383 150 376.2C200 369.3 250 360.7 300 362.5C350 364.3 400 376.7 450 385.5C500 394.3 550 399.7 600 396.7C650 393.7 700 382.3 750 378.3C800 374.3 850 377.7 875 379.3L900 381L900 601L875 601C850 601 800 601 750 601C700 601 650 601 600 601C550 601 500 601 450 601C400 601 350 601 300 601C250 601 200 601 150 601C100 601 50 601 25 601L0 601Z" fill="#f8fafc"></path><path d="M0 445L25 449C50 453 100 461 150 461.8C200 462.7 250 456.3 300 445C350 433.7 400 417.3 450 418.8C500 420.3 550 439.7 600 440.7C650 441.7 700 424.3 750 426.8C800 429.3 850 451.7 875 462.8L900 474L900 601L875 601C850 601 800 601 750 601C700 601 650 601 600 601C550 601 500 601 450 601C400 601 350 601 300 601C250 601 200 601 150 601C100 601 50 601 25 601L0 601Z" fill="#b0d1ff"></path><path d="M0 468L25 471.3C50 474.7 100 481.3 150 480.8C200 480.3 250 472.7 300 471.8C350 471 400 477 450 484C500 491 550 499 600 504C650 509 700 511 750 510.8C800 510.7 850 508.3 875 507.2L900 506L900 601L875 601C850 601 800 601 750 601C700 601 650 601 600 601C550 601 500 601 450 601C400 601 350 601 300 601C250 601 200 601 150 601C100 601 50 601 25 601L0 601Z" fill="#7da2ff"></path><path d="M0 544L25 543.5C50 543 100 542 150 536.3C200 530.7 250 520.3 300 520.2C350 520 400 530 450 539.3C500 548.7 550 557.3 600 556C650 554.7 700 543.3 750 534.2C800 525 850 518 875 514.5L900 511L900 601L875 601C850 601 800 601 750 601C700 601 650 601 600 601C550 601 500 601 450 601C400 601 350 601 300 601C250 601 200 601 150 601C100 601 50 601 25 601L0 601Z" fill="#7669fa"></path></svg>