<svg id="visual" viewBox="0 0 900 600" width="900" height="600" xmlns="http://www.w3.org/2000/svg" xmlns:xlink="http://www.w3.org/1999/xlink" version="1.1"><path d="M0 205L25 207.5C50 210 100 215 150 221.8C200 228.7 250 237.3 300 235.5C350 233.7 400 221.3 450 212.5C500 203.7 550 198.3 600 201.3C650 204.3 700 215.7 750 219.7C800 223.7 850 220.3 875 218.7L900 217L900 0L875 0C850 0 800 0 750 0C700 0 650 0 600 0C550 0 500 0 450 0C400 0 350 0 300 0C250 0 200 0 150 0C100 0 50 0 25 0L0 0Z" fill="#111827"></path><path d="M0 153L25 149C50 145 100 137 150 136.2C200 135.3 250 141.7 300 153C350 164.3 400 180.7 450 179.2C500 177.7 550 158.3 600 157.3C650 156.3 700 173.7 750 171.2C800 168.7 850 146.3 875 135.2L900 124L900 0L875 0C850 0 800 0 750 0C700 0 650 0 600 0C550 0 500 0 450 0C400 0 350 0 300 0C250 0 200 0 150 0C100 0 50 0 25 0L0 0Z" fill="#1c356a"></path><path d="M0 130L25 126.7C50 123.3 100 116.7 150 117.2C200 117.7 250 125.3 300 126.2C350 127 400 121 450 114C500 107 550 99 600 94C650 89 700 87 750 87.2C800 87.3 850 89.7 875 90.8L900 92L900 0L875 0C850 0 800 0 750 0C700 0 650 0 600 0C550 0 500 0 450 0C400 0 350 0 300 0C250 0 200 0 150 0C100 0 50 0 25 0L0 0Z" fill="#3d51b2"></path><path d="M0 54L25 54.5C50 55 100 56 150 61.7C200 67.3 250 77.7 300 77.8C350 78 400 68 450 58.7C500 49.3 550 40.7 600 42C650 43.3 700 54.7 750 63.8C800 73 850 80 875 83.5L900 87L900 0L875 0C850 0 800 0 750 0C700 0 650 0 600 0C550 0 500 0 450 0C400 0 350 0 300 0C250 0 200 0 150 0C100 0 50 0 25 0L0 0Z" fill="#7669fa"></path></svg>